<?xml version="1.0" encoding="UTF-8"?>
<svg width="120" height="120" version="1.1" viewBox="0 0 31.75 31.75" xmlns="http://www.w3.org/2000/svg" >
 <circle transform="rotate(90)" cx="15.814" cy="-15.722" r="15.875" fill="#fbaa1b" fill-rule="evenodd" stroke-width=".26458"/>
 <path transform="matrix(.17349 0 0 .17349 -5.8973 -11.826)" d="m78.996 141.99c0.24702-0.63568 1.0945-1.7657 2.1717-2.7722s2.3837-1.8893 3.9552-2.5956c1.5715-0.70628 3.4078-1.236 5.3501-1.4831 1.9423-0.24716 3.9904-0.21186 5.8268-0.0882 1.8363 0.12361 3.4607 0.33549 5.0145 0.70632 1.5538 0.37084 3.0369 0.90053 4.2023 1.5539 1.1653 0.65338 2.0128 1.4302 2.2775 2.1718 0.26469 0.74153-0.0531 1.4478-0.56507 1.9068-0.51193 0.45898-1.2182 0.67086-1.995 0.79448-0.77686 0.12361-1.6244 0.15893-2.5248 0.053-0.90047-0.1059-1.8539-0.35309-2.7544-0.54733-0.9005-0.19424-1.748-0.33549-2.5779-0.40614-0.82989-0.0707-1.6421-0.0707-2.4896-0.053s-1.7303 0.053-2.4369 0.0375c-0.70653-0.0155-1.3063-0.0904-1.8713-0.10812-0.56504-0.0177-1.13 0.0176-1.907 0.0883-0.77691 0.0706-1.7657 0.17657-2.7368 0.26485-0.97112 0.0883-1.9246 0.15892-2.8781 0.35312-0.95351 0.19421-1.907 0.51203-2.5073 0.70625-0.60032 0.19423-0.84751 0.26485-1.1476 0.22963-0.30009-0.0352-0.65322-0.17648-0.4062-0.81216z" stroke="#000" stroke-width=".26458px"/>
 <path transform="matrix(-.17349 0 0 .17349 36.151 -11.826)" d="m78.996 141.99c0.24702-0.63568 1.0945-1.7657 2.1717-2.7722s2.3837-1.8893 3.9552-2.5956c1.5715-0.70628 3.4078-1.236 5.3501-1.4831 1.9423-0.24716 3.9904-0.21186 5.8268-0.0882 1.8363 0.12361 3.4607 0.33549 5.0145 0.70632 1.5538 0.37084 3.0369 0.90053 4.2023 1.5539 1.1653 0.65338 2.0128 1.4302 2.2775 2.1718 0.26469 0.74153-0.0531 1.4478-0.56507 1.9068-0.51193 0.45898-1.2182 0.67086-1.995 0.79448-0.77686 0.12361-1.6244 0.15893-2.5248 0.053-0.90047-0.1059-1.8539-0.35309-2.7544-0.54733-0.9005-0.19424-1.748-0.33549-2.5779-0.40614-0.82989-0.0707-1.6421-0.0707-2.4896-0.053s-1.7303 0.053-2.4369 0.0375c-0.70653-0.0155-1.3063-0.0904-1.8713-0.10812-0.56504-0.0177-1.13 0.0176-1.907 0.0883-0.77691 0.0706-1.7657 0.17657-2.7368 0.26485-0.97112 0.0883-1.9246 0.15892-2.8781 0.35312-0.95351 0.19421-1.907 0.51203-2.5073 0.70625-0.60032 0.19423-0.84751 0.26485-1.1476 0.22963-0.30009-0.0352-0.65322-0.17648-0.4062-0.81216z" stroke="#000" stroke-width=".26458px"/>
 <g transform="matrix(.17349 0 0 .17349 -5.8973 -11.826)">
  <path d="m87.164 149.47c0.39704-0.33596 1.1911-1.0079 1.9776-1.5194 0.78649-0.51158 1.5653-0.8628 2.367-1.1835 0.80172-0.32068 1.6263-0.61081 2.5579-0.80932 0.93155-0.1985 1.9699-0.30539 2.9931-0.27481 1.0232 0.0306 2.031 0.19855 2.9243 0.5193 0.89333 0.32076 1.6721 0.79413 2.5556 1.4582 0.8835 0.66404 1.852 1.5016 2.7673 2.3608 0.91528 0.85912 1.7058 1.6727 1.8274 1.6777 0.1216 5e-3 -0.44178-0.8149-1.1712-1.6955s-1.625-1.8216-2.4239-2.506c-0.79896-0.68437-1.5014-1.1119-2.1198-1.4326-0.61846-0.32071-1.1529-0.5345-1.8019-0.71778-0.64901-0.18328-1.4125-0.33598-2.1532-0.41999-0.74064-0.084-1.4583-0.0993-2.1608-0.0306s-1.3896 0.2214-2.2067 0.48863c-0.81701 0.26724-1.7638 0.64899-2.5273 1.0231-0.76356 0.37413-1.3438 0.74061-1.886 1.1377-0.54213 0.39705-1.046 0.82461-1.3744 1.1606-0.32835 0.336-0.48106 0.58033-0.54206 0.74843-0.061 0.1681-0.03047 0.25971-0.01525 0.30537 0.01522 0.0457 0.01522 0.0456 0.41226-0.29033z" stroke="#000" stroke-width="2"/>
  <ellipse cx="96.64" cy="148.77" rx="3.9834" ry="3.6191"/>
  <circle cx="98.715" cy="148.02" r="1.5094" fill="#fff"/>
 </g>
 <g transform="matrix(-.17349 0 0 .17349 36.462 -11.826)">
  <path d="m87.164 149.47c0.39704-0.33596 1.1911-1.0079 1.9776-1.5194 0.78649-0.51158 1.5653-0.8628 2.367-1.1835 0.80172-0.32068 1.6263-0.61081 2.5579-0.80932 0.93155-0.1985 1.9699-0.30539 2.9931-0.27481 1.0232 0.0306 2.031 0.19855 2.9243 0.5193 0.89333 0.32076 1.6721 0.79413 2.5556 1.4582 0.8835 0.66404 1.852 1.5016 2.7673 2.3608 0.91528 0.85912 1.7058 1.6727 1.8274 1.6777 0.1216 5e-3 -0.44178-0.8149-1.1712-1.6955s-1.625-1.8216-2.4239-2.506c-0.79896-0.68437-1.5014-1.1119-2.1198-1.4326-0.61846-0.32071-1.1529-0.5345-1.8019-0.71778-0.64901-0.18328-1.4125-0.33598-2.1532-0.41999-0.74064-0.084-1.4583-0.0993-2.1608-0.0306s-1.3896 0.2214-2.2067 0.48863c-0.81701 0.26724-1.7638 0.64899-2.5273 1.0231-0.76356 0.37413-1.3438 0.74061-1.886 1.1377-0.54213 0.39705-1.046 0.82461-1.3744 1.1606-0.32835 0.336-0.48106 0.58033-0.54206 0.74843-0.061 0.1681-0.03047 0.25971-0.01525 0.30537 0.01522 0.0457 0.01522 0.0456 0.41226-0.29033z" stroke="#000" stroke-width="2"/>
  <ellipse cx="96.64" cy="148.77" rx="3.9834" ry="3.6191"/>
  <circle cx="98.715" cy="148.02" r="1.5094" fill="#fff"/>
 </g>
 <g fill="none" stroke="#000">
  <path d="m13.702 24.979c0.41456 0.06367 0.83401 0.09544 1.2534 0.09496 0.41309-5.04e-4 0.82614-0.03225 1.2344-0.09496m1.2069-6.0609c0.14296 0.12962 0.2434 0.30539 0.28249 0.49436 0.04254 0.20564 0.01343 0.41958-0.03532 0.62384-0.02511 0.10522-0.05608 0.21081-0.11377 0.30232-0.02884 0.04575-0.0643 0.08763-0.10663 0.12128-0.04234 0.03366-0.0917 0.05895-0.14449 0.07075-0.06161 0.01377-0.12583 9e-3 -0.18833 0-0.10608-0.0152-0.21076-0.04212-0.3178-0.04708-0.14986-0.0069-0.29995 0.02991-0.43551 0.09416-0.1686 0.07993-0.31419 0.20021-0.45905 0.3178-0.10242 0.08315-0.20575 0.16579-0.3178 0.23541-0.07028 0.04366-0.14435 0.0823-0.22364 0.10594-0.06994 0.02085-0.14299 0.02973-0.21592 0.03262-0.0202 8.49e-4 -0.04042 0.0012-0.06063 1e-3m-2.3249-2.3524c-0.14296 0.12962-0.2434 0.30539-0.28249 0.49436-0.04254 0.20564-0.01343 0.41958 0.03531 0.62384 0.02511 0.10522 0.05608 0.21081 0.11377 0.30232 0.02884 0.04575 0.0643 0.08763 0.10663 0.12128 0.04234 0.03366 0.09171 0.05895 0.14449 0.07075 0.06161 0.01377 0.12583 9e-3 0.18833 0 0.10608-0.0152 0.21076-0.04211 0.3178-0.04708 0.14986-0.0069 0.29995 0.0299 0.43551 0.09416 0.1686 0.07993 0.31418 0.2002 0.45905 0.3178 0.10242 0.08315 0.20575 0.16579 0.3178 0.23541 0.07028 0.04366 0.14435 0.08229 0.22364 0.10594 0.06994 0.02085 0.14299 0.02975 0.21591 0.03262 0.01638 7.04e-4 0.03275 1e-3 0.04913 1e-3m-3.5728 2.339c0.41423 0.04917 0.82971 0.08782 1.2459 0.1159 0.5065 0.03417 1.0139 0.05266 1.5212 0.07244 0.4248 0.01655 0.84979 0.03401 1.2749 0.02897 0.57235-0.0068 1.1443-0.05442 1.7095-0.14487 0.50934-0.08151 1.0131-0.19777 1.5067-0.3477m-3.3909-21.516c0.56322-0.018221 1.1285 0.027923 1.6813 0.13725 0.92214 0.18237 1.8023 0.53844 2.6421 0.96075 0.87278 0.43889 1.7137 0.95514 2.4362 1.6127 0.5913 0.53815 1.0984 1.1673 1.5097 1.8529 0.3467 0.57776 0.627 1.1989 0.78919 1.8529 0.13617 0.54906 0.18803 1.1159 0.20588 1.6813 0.03722 1.1788-0.07147 2.3566-0.13725 3.5342-0.07023 1.2575-0.09157 2.5175-0.17156 3.7744-0.07846 1.233-0.2138 2.4651-0.48038 3.6714-0.25207 1.1408-0.62305 2.2599-1.1666 3.294-0.46852 0.89135-1.0607 1.7118-1.6813 2.5048-0.56551 0.72257-1.1664 1.4345-1.9215 1.9558-1.0588 0.73106-2.3983 1.044-3.6714 0.85781m0.079256-27.69c-0.56322-0.018221-1.1285 0.027923-1.6813 0.13725-0.92215 0.18237-1.8023 0.53844-2.6421 0.96075-0.87278 0.43889-1.7137 0.95514-2.4362 1.6127-0.5913 0.53815-1.0984 1.1673-1.5097 1.8529-0.3467 0.57776-0.627 1.1989-0.78919 1.8529-0.13617 0.54906-0.18803 1.1159-0.20588 1.6813-0.037214 1.1788 0.07148 2.3566 0.13725 3.5342 0.070235 1.2575 0.091575 2.5175 0.17156 3.7744 0.078464 1.233 0.21381 2.4651 0.48037 3.6714 0.25207 1.1408 0.62305 2.2599 1.1666 3.294 0.46852 0.89135 1.0607 1.7118 1.6813 2.5048 0.56551 0.72257 1.1664 1.4345 1.9215 1.9558 1.0588 0.73106 2.3983 1.044 3.6714 0.85781" stroke-linecap="round" stroke-linejoin="round" stroke-width=".52047"/>
  <path transform="matrix(.17349 0 0 .17349 -5.8973 -11.826)" d="m70.607 147.8c-0.15671-0.55598-0.50759-1.0552-0.97764-1.391-0.47005-0.33575-1.0561-0.50575-1.6328-0.47367-0.61065 0.034-1.202 0.29229-1.6604 0.69722-0.45834 0.40494-0.78454 0.95156-0.95008 1.5403-0.27049 0.96197-0.11782 1.9842-0.12431 2.9834-0.0081 1.2499-0.26854 2.4836-0.37292 3.7292-0.15614 1.8631 0.03771 3.7362 0.24862 5.5939 0.34248 3.0166 0.73407 6.0451 1.616 8.9502 0.6717 2.2126 1.6347 4.4004 1.616 6.7126-8e-3 0.99616-0.20034 1.9901-0.12431 2.9834 0.05189 0.67784 0.23076 1.3481 0.5448 1.951 0.31404 0.60294 0.76463 1.1373 1.3198 1.5296 0.92352 0.65263 2.1323 0.88509 3.232 0.62154" stroke-width="3"/>
  <path transform="matrix(-.17349 0 0 .17349 36.695 -11.826)" d="m70.607 147.8c-0.15671-0.55598-0.50759-1.0552-0.97764-1.391-0.47005-0.33575-1.0561-0.50575-1.6328-0.47367-0.61065 0.034-1.202 0.29229-1.6604 0.69722-0.45834 0.40494-0.78454 0.95156-0.95008 1.5403-0.27049 0.96197-0.11782 1.9842-0.12431 2.9834-0.0081 1.2499-0.26854 2.4836-0.37292 3.7292-0.15614 1.8631 0.03771 3.7362 0.24862 5.5939 0.34248 3.0166 0.73407 6.0451 1.616 8.9502 0.6717 2.2126 1.6347 4.4004 1.616 6.7126-8e-3 0.99616-0.20034 1.9901-0.12431 2.9834 0.05189 0.67784 0.23076 1.3481 0.5448 1.951 0.31404 0.60294 0.76463 1.1373 1.3198 1.5296 0.92352 0.65263 2.1323 0.88509 3.232 0.62154" stroke-width="3"/>
 </g>
 <g stroke-dashoffset="1.5118">
  <ellipse cx="21.661" cy="19.078" rx=".18629" ry=".23597" stroke-width=".13879"/>
  <g stroke-width=".067229">
   <circle cx="6.567" cy="13.448" r=".048126"/>
   <circle cx="7.0168" cy="13.464" r=".048126"/>
   <circle cx="6.6537" cy="12.635" r=".048126"/>
   <circle cx="7.0723" cy="12.883" r=".048126"/>
   <circle cx="6.7511" cy="12.674" r=".048126"/>
   <circle cx="6.6021" cy="12.446" r=".048126"/>
   <circle cx="6.3918" cy="12.352" r=".048126"/>
   <circle cx="6.6163" cy="12.6" r=".048126"/>
   <circle cx="7.2164" cy="12.278" r=".048126"/>
   <circle cx="6.813" cy="12.213" r=".048126"/>
   <circle cx="6.8444" cy="12.534" r=".048126"/>
   <circle cx="6.6106" cy="12.137" r=".048126"/>
   <circle cx="7.0891" cy="11.681" r=".048126"/>
   <circle cx="6.9187" cy="11.76" r=".048126"/>
   <circle cx="6.6889" cy="11.896" r=".048126"/>
   <circle cx="6.7442" cy="11.863" r=".048126"/>
   <circle cx="7.1988" cy="11.65" r=".048126"/>
   <circle cx="6.6941" cy="10.971" r=".048126"/>
   <circle cx="6.937" cy="11.379" r=".048126"/>
   <circle cx="7.2309" cy="11.348" r=".048126"/>
   <circle cx="7.0612" cy="10.651" r=".048126"/>
   <circle cx="6.7737" cy="10.916" r=".048126"/>
   <circle cx="6.9597" cy="10.479" r=".048126"/>
   <circle cx="6.8833" cy="9.83" r=".048126"/>
   <circle cx="7.4605" cy="9.4742" r=".048126"/>
   <circle cx="6.725" cy="9.2821" r=".048126"/>
   <circle cx="7.0073" cy="8.3965" r=".048126"/>
   <circle cx="7.3231" cy="8.4998" r=".048126"/>
   <circle cx="7.0851" cy="8.389" r=".048126"/>
   <circle cx="7.1105" cy="8.1474" r=".048126"/>
   <circle cx="6.9114" cy="7.7712" r=".048126"/>
   <circle cx="7.0041" cy="8.0619" r=".048126"/>
   <circle cx="6.7627" cy="7.4966" r=".048126"/>
   <circle cx="6.8841" cy="7.441" r=".048126"/>
   <circle cx="7.1151" cy="6.9355" r=".048126"/>
   <circle cx="6.8636" cy="6.9872" r=".048126"/>
   <circle cx="7.5817" cy="7.3339" r=".048126"/>
   <circle cx="7.3644" cy="7.0022" r=".048126"/>
   <circle cx="7.3427" cy="7.07" r=".048126"/>
   <circle cx="7.7118" cy="6.7061" r=".048126"/>
   <circle cx="7.3974" cy="7.1273" r=".048126"/>
   <circle cx="7.8403" cy="6.9655" r=".048126"/>
   <circle cx="7.6448" cy="6.709" r=".048126"/>
   <circle cx="8.001" cy="6.236" r=".048126"/>
   <circle cx="7.8196" cy="6.2912" r=".048126"/>
   <circle cx="7.8857" cy="5.7781" r=".048126"/>
   <circle cx="7.9766" cy="5.7748" r=".048126"/>
   <circle cx="8.0076" cy="6.0439" r=".048126"/>
   <circle cx="7.8045" cy="5.9265" r=".048126"/>
   <circle cx="8.2672" cy="6.1974" r=".048126"/>
   <circle cx="8.1061" cy="6.253" r=".048126"/>
   <circle cx="8.0524" cy="6.0403" r=".048126"/>
   <circle cx="7.8234" cy="5.9891" r=".048126"/>
   <circle cx="8.0768" cy="5.5763" r=".048126"/>
   <circle cx="8.2459" cy="5.4822" r=".048126"/>
   <circle cx="8.2648" cy="5.3426" r=".048126"/>
   <circle cx="8.4722" cy="5.5973" r=".048126"/>
   <circle cx="8.8267" cy="5.704" r=".048126"/>
   <circle cx="8.7293" cy="5.0559" r=".048126"/>
   <circle cx="8.9868" cy="5.299" r=".048126"/>
   <circle cx="9.0218" cy="5.0676" r=".048126"/>
   <circle cx="9.3082" cy="5.3981" r=".048126"/>
   <circle cx="9.4236" cy="4.4716" r=".048126"/>
   <circle cx="8.8544" cy="5.1269" r=".048126"/>
   <circle cx="9.6213" cy="4.9694" r=".048126"/>
   <circle cx="9.3611" cy="4.7526" r=".048126"/>
   <circle cx="9.5733" cy="4.8178" r=".048126"/>
   <circle cx="9.6438" cy="4.1833" r=".048126"/>
   <circle cx="9.5137" cy="4.5704" r=".048126"/>
   <circle cx="9.8248" cy="4.3604" r=".048126"/>
   <circle cx="9.9309" cy="4.194" r=".048126"/>
   <circle cx="9.7221" cy="4.4988" r=".048126"/>
   <circle cx="10.199" cy="4.1068" r=".048126"/>
   <circle cx="10.119" cy="4.2495" r=".048126"/>
   <circle cx="10.622" cy="4.0196" r=".048126"/>
   <circle cx="10.297" cy="3.7508" r=".048126"/>
   <circle cx="10.801" cy="3.4668" r=".048126"/>
   <circle cx="10.794" cy="3.7601" r=".048126"/>
   <circle cx="11.112" cy="3.5043" r=".048126"/>
   <circle cx="10.755" cy="3.3117" r=".048126"/>
   <circle cx="11.306" cy="3.7051" r=".048126"/>
   <circle cx="11.719" cy="3.2912" r=".048126"/>
   <circle cx="11.606" cy="3.3956" r=".048126"/>
   <circle cx="11.574" cy="3.0641" r=".048126"/>
   <circle cx="12.063" cy="2.7352" r=".048126"/>
   <circle cx="11.749" cy="2.8642" r=".048126"/>
   <circle cx="12.472" cy="3.1719" r=".048126"/>
   <circle cx="12.4" cy="2.774" r=".048126"/>
   <circle cx="12.213" cy="3.1955" r=".048126"/>
   <circle cx="12.082" cy="3.2898" r=".048126"/>
   <circle cx="12.543" cy="3.1715" r=".048126"/>
   <circle cx="12.303" cy="3.4416" r=".048126"/>
   <circle cx="12.063" cy="2.8916" r=".048126"/>
   <circle cx="11.952" cy="3.4927" r=".048126"/>
   <circle cx="12.653" cy="3.3341" r=".048126"/>
   <circle cx="12.012" cy="3.7659" r=".048126"/>
   <circle cx="12.198" cy="3.6973" r=".048126"/>
   <circle cx="12.644" cy="3.3524" r=".048126"/>
   <circle cx="12.714" cy="3.432" r=".048126"/>
   <circle cx="12.321" cy="3.9613" r=".048126"/>
   <circle cx="12.427" cy="3.3603" r=".048126"/>
   <circle cx="12.846" cy="3.1983" r=".048126"/>
   <circle cx="12.759" cy="3.4348" r=".048126"/>
   <circle cx="12.491" cy="3.5432" r=".048126"/>
   <circle cx="13.195" cy="3.9146" r=".048126"/>
   <circle cx="13.093" cy="3.4878" r=".048126"/>
   <circle cx="12.973" cy="3.4796" r=".048126"/>
   <circle cx="13.725" cy="3.4321" r=".048126"/>
   <circle cx="13.706" cy="3.5031" r=".048126"/>
   <circle cx="13.913" cy="3.7633" r=".048126"/>
   <circle cx="13.999" cy="3.8233" r=".048126"/>
   <circle cx="13.898" cy="3.9653" r=".048126"/>
   <circle cx="13.96" cy="3.6363" r=".048126"/>
   <circle cx="14.43" cy="3.4426" r=".048126"/>
   <circle cx="14.604" cy="3.874" r=".048126"/>
   <circle cx="14.453" cy="3.8084" r=".048126"/>
   <circle cx="14.414" cy="3.2943" r=".048126"/>
   <circle cx="14.978" cy="3.6505" r=".048126"/>
   <circle cx="15.161" cy="3.4775" r=".048126"/>
   <circle cx="14.799" cy="3.6193" r=".048126"/>
   <circle cx="15.695" cy="3.6145" r=".048126"/>
   <circle cx="15.441" cy="3.8279" r=".048126"/>
   <circle cx="16.35" cy="3.5" r=".048126"/>
   <circle cx="16.704" cy="3.8339" r=".048126"/>
   <circle cx="16.937" cy="3.9359" r=".048126"/>
   <circle cx="17.481" cy="3.6718" r=".048126"/>
   <circle cx="17.329" cy="3.8534" r=".048126"/>
   <circle cx="17.429" cy="3.3632" r=".048126"/>
   <circle cx="16.979" cy="3.5855" r=".048126"/>
   <circle cx="17.201" cy="3.2384" r=".048126"/>
   <circle cx="18.089" cy="3.7902" r=".048126"/>
   <circle cx="18.163" cy="3.5045" r=".048126"/>
   <circle cx="18.184" cy="3.4183" r=".048126"/>
   <circle cx="18.215" cy="3.0827" r=".048126"/>
   <circle cx="17.872" cy="3.3425" r=".048126"/>
   <circle cx="18.243" cy="3.4415" r=".048126"/>
   <circle cx="18.498" cy="3.3258" r=".048126"/>
   <circle cx="18.529" cy="2.9854" r=".048126"/>
   <circle cx="19.066" cy="3.328" r=".048126"/>
   <circle cx="19.258" cy="3.1592" r=".048126"/>
   <circle cx="18.595" cy="2.7745" r=".048126"/>
   <circle cx="18.666" cy="2.9371" r=".048126"/>
   <circle cx="18.767" cy="3.1854" r=".048126"/>
   <circle cx="18.344" cy="2.5575" r=".048126"/>
   <circle cx="18.274" cy="3.3281" r=".048126"/>
   <circle cx="17.584" cy="2.6948" r=".048126"/>
   <circle cx="17.793" cy="2.7805" r=".048126"/>
   <circle cx="17.763" cy="2.4134" r=".048126"/>
   <circle cx="17.304" cy="2.7721" r=".048126"/>
   <circle cx="16.885" cy="2.5639" r=".048126"/>
   <circle cx="17.333" cy="2.8683" r=".048126"/>
   <circle cx="16.932" cy="2.7036" r=".048126"/>
   <circle cx="16.555" cy="2.2145" r=".048126"/>
   <circle cx="16.585" cy="2.4556" r=".048126"/>
   <circle cx="16.729" cy="2.772" r=".048126"/>
   <circle cx="16.605" cy="2.5582" r=".048126"/>
   <circle cx="16.376" cy="2.5214" r=".048126"/>
   <circle cx="16.456" cy="2.5552" r=".048126"/>
   <circle cx="16.615" cy="2.5648" r=".048126"/>
   <circle cx="16.212" cy="2.5435" r=".048126"/>
   <circle cx="15.306" cy="2.7723" r=".048126"/>
   <circle cx="15.474" cy="2.3997" r=".048126"/>
   <circle cx="15.202" cy="2.5092" r=".048126"/>
   <circle cx="14.743" cy="2.2774" r=".048126"/>
   <circle cx="14.79" cy="2.4057" r=".048126"/>
   <circle cx="14.842" cy="2.2242" r=".048126"/>
   <circle cx="14.877" cy="2.6476" r=".048126"/>
   <circle cx="14.586" cy="2.8394" r=".048126"/>
   <circle cx="14.537" cy="2.1188" r=".048126"/>
   <circle cx="14.003" cy="2.2324" r=".048126"/>
   <circle cx="14.286" cy="2.2857" r=".048126"/>
   <circle cx="14.198" cy="2.4268" r=".048126"/>
   <circle cx="13.852" cy="2.3088" r=".048126"/>
   <circle cx="13.606" cy="2.4799" r=".048126"/>
   <circle cx="13.155" cy="3.1478" r=".048126"/>
   <circle cx="12.809" cy="2.6026" r=".048126"/>
   <circle cx="12.824" cy="2.542" r=".048126"/>
   <circle cx="12.602" cy="2.7501" r=".048126"/>
   <circle cx="13.195" cy="3.0759" r=".048126"/>
   <circle cx="13.068" cy="2.9175" r=".048126"/>
   <circle cx="12.689" cy="2.9811" r=".048126"/>
   <circle cx="12.439" cy="3.1032" r=".048126"/>
   <circle cx="12.577" cy="3.0858" r=".048126"/>
   <circle cx="13.184" cy="3.0538" r=".048126"/>
   <circle cx="12.545" cy="2.8424" r=".048126"/>
   <circle cx="13.118" cy="3.3036" r=".048126"/>
   <circle cx="13.362" cy="2.8742" r=".048126"/>
   <circle cx="13.186" cy="2.6639" r=".048126"/>
   <circle cx="13.842" cy="2.9763" r=".048126"/>
   <circle cx="13.411" cy="3.1741" r=".048126"/>
   <circle cx="13.699" cy="2.8271" r=".048126"/>
   <circle cx="13.874" cy="2.698" r=".048126"/>
   <circle cx="13.641" cy="2.968" r=".048126"/>
   <circle cx="14.488" cy="2.6884" r=".048126"/>
   <circle cx="13.954" cy="2.8992" r=".048126"/>
   <circle cx="14.82" cy="3.0812" r=".048126"/>
   <circle cx="14.408" cy="2.3979" r=".048126"/>
   <circle cx="15.527" cy="2.8516" r=".048126"/>
   <circle cx="15.438" cy="2.6519" r=".048126"/>
   <circle cx="15.864" cy="2.8953" r=".048126"/>
   <circle cx="15.433" cy="3.1075" r=".048126"/>
   <circle cx="16.1" cy="2.9" r=".048126"/>
   <circle cx="15.689" cy="2.687" r=".048126"/>
   <circle cx="15.75" cy="3.2314" r=".048126"/>
   <circle cx="16.36" cy="3.3264" r=".048126"/>
   <circle cx="16.109" cy="2.7528" r=".048126"/>
   <circle cx="16.268" cy="3.2782" r=".048126"/>
   <circle cx="16.585" cy="3.0089" r=".048126"/>
   <circle cx="16.84" cy="3.133" r=".048126"/>
   <circle cx="16.77" cy="3.3787" r=".048126"/>
   <circle cx="16.668" cy="3.422" r=".048126"/>
   <circle cx="17.733" cy="3.5261" r=".048126"/>
   <circle cx="17.647" cy="2.9449" r=".048126"/>
   <circle cx="17.981" cy="3.0038" r=".048126"/>
   <circle cx="17.739" cy="3.1653" r=".048126"/>
   <circle cx="17.707" cy="3.3578" r=".048126"/>
   <circle cx="17.245" cy="3.126" r=".048126"/>
   <circle cx="17.386" cy="2.954" r=".048126"/>
   <circle cx="17.206" cy="2.6319" r=".048126"/>
   <circle cx="17.019" cy="2.2665" r=".048126"/>
   <circle cx="17.037" cy="1.9831" r=".048126"/>
   <circle cx="16.759" cy="2.338" r=".048126"/>
   <circle cx="15.993" cy="2.5981" r=".048126"/>
   <circle cx="16.027" cy="2.6974" r=".048126"/>
   <circle cx="15.791" cy="1.9311" r=".048126"/>
   <circle cx="15.555" cy="2.8193" r=".048126"/>
   <circle cx="15.113" cy="2.0479" r=".048126"/>
   <circle cx="15.718" cy="2.0743" r=".048126"/>
   <circle cx="14.98" cy="2.2952" r=".048126"/>
   <circle cx="15.268" cy="2.2136" r=".048126"/>
   <circle cx="15.316" cy="2.5615" r=".048126"/>
   <circle cx="15.169" cy="2.6764" r=".048126"/>
   <circle cx="15.955" cy="3.1031" r=".048126"/>
   <circle cx="15.856" cy="2.712" r=".048126"/>
   <circle cx="16.094" cy="3.0316" r=".048126"/>
   <circle cx="16.819" cy="3.4503" r=".048126"/>
   <circle cx="17.404" cy="3.5161" r=".048126"/>
   <circle cx="17.049" cy="3.3744" r=".048126"/>
   <circle cx="17.354" cy="3.6036" r=".048126"/>
   <circle cx="18.548" cy="3.7807" r=".048126"/>
   <circle cx="18.767" cy="3.2815" r=".048126"/>
   <circle cx="18.618" cy="3.6997" r=".048126"/>
   <circle cx="18.587" cy="3.7665" r=".048126"/>
   <circle cx="18.748" cy="3.4162" r=".048126"/>
   <circle cx="19.176" cy="3.2121" r=".048126"/>
   <circle cx="19.636" cy="3.7544" r=".048126"/>
   <circle cx="19.423" cy="3.7257" r=".048126"/>
   <circle cx="20.314" cy="3.4698" r=".048126"/>
   <circle cx="19.65" cy="3.8684" r=".048126"/>
   <circle cx="20.093" cy="3.6633" r=".048126"/>
   <circle cx="20.374" cy="3.9722" r=".048126"/>
   <circle cx="19.871" cy="3.7741" r=".048126"/>
   <circle cx="20.865" cy="3.8976" r=".048126"/>
   <circle cx="20.173" cy="4.1845" r=".048126"/>
   <circle cx="20.166" cy="4.0348" r=".048126"/>
   <circle cx="20.923" cy="4.3119" r=".048126"/>
   <circle cx="20.882" cy="3.9665" r=".048126"/>
   <circle cx="21.063" cy="3.8813" r=".048126"/>
   <circle cx="21.236" cy="4.3982" r=".048126"/>
   <circle cx="20.955" cy="4.9322" r=".048126"/>
   <circle cx="21.369" cy="4.4355" r=".048126"/>
   <circle cx="21.449" cy="4.568" r=".048126"/>
   <circle cx="21.323" cy="4.7702" r=".048126"/>
   <circle cx="21.697" cy="5.2109" r=".048126"/>
   <circle cx="21.789" cy="5.4083" r=".048126"/>
   <circle cx="21.666" cy="5.3429" r=".048126"/>
   <circle cx="22.498" cy="5.4626" r=".048126"/>
   <circle cx="22.897" cy="5.5991" r=".048126"/>
   <circle cx="22.371" cy="5.6177" r=".048126"/>
   <circle cx="22.248" cy="5.8394" r=".048126"/>
   <circle cx="22.388" cy="5.7423" r=".048126"/>
   <circle cx="22.63" cy="5.5502" r=".048126"/>
   <circle cx="22.375" cy="5.7636" r=".048126"/>
   <circle cx="23.063" cy="5.8127" r=".048126"/>
   <circle cx="23.049" cy="6.0841" r=".048126"/>
   <circle cx="22.668" cy="5.9437" r=".048126"/>
   <circle cx="22.784" cy="6.5541" r=".048126"/>
   <circle cx="23.176" cy="6.487" r=".048126"/>
   <circle cx="23.066" cy="6.4574" r=".048126"/>
   <circle cx="23.613" cy="6.8088" r=".048126"/>
   <circle cx="23.267" cy="7.1439" r=".048126"/>
   <circle cx="23.018" cy="7.2617" r=".048126"/>
   <circle cx="22.979" cy="7.11" r=".048126"/>
   <circle cx="23.428" cy="7.5089" r=".048126"/>
   <circle cx="23.461" cy="7.7948" r=".048126"/>
   <circle cx="23.627" cy="8.0642" r=".048126"/>
   <circle cx="23.339" cy="7.5516" r=".048126"/>
   <circle cx="23.869" cy="7.9423" r=".048126"/>
   <circle cx="23.623" cy="8.346" r=".048126"/>
   <circle cx="23.807" cy="8.9813" r=".048126"/>
   <circle cx="23.941" cy="8.7811" r=".048126"/>
   <circle cx="23.795" cy="8.8615" r=".048126"/>
   <circle cx="23.756" cy="8.7273" r=".048126"/>
   <circle cx="23.668" cy="8.6535" r=".048126"/>
   <circle cx="23.932" cy="8.7523" r=".048126"/>
   <circle cx="23.986" cy="8.9853" r=".048126"/>
   <circle cx="24.028" cy="9.4685" r=".048126"/>
   <circle cx="23.611" cy="9.7508" r=".048126"/>
   <circle cx="23.823" cy="9.307" r=".048126"/>
   <circle cx="24.215" cy="9.4987" r=".048126"/>
   <circle cx="24.112" cy="9.7754" r=".048126"/>
   <circle cx="23.968" cy="10.301" r=".048126"/>
   <circle cx="24.022" cy="10.547" r=".048126"/>
   <circle cx="23.503" cy="10.22" r=".048126"/>
   <circle cx="23.591" cy="10.567" r=".048126"/>
   <circle cx="24.197" cy="10.798" r=".048126"/>
   <circle cx="23.953" cy="11.005" r=".048126"/>
   <circle cx="24.056" cy="10.958" r=".048126"/>
   <circle cx="24.046" cy="10.966" r=".048126"/>
   <circle cx="24.092" cy="11.04" r=".048126"/>
   <circle cx="24.325" cy="10.979" r=".048126"/>
   <circle cx="23.667" cy="11.178" r=".048126"/>
   <circle cx="23.997" cy="11.157" r=".048126"/>
   <circle cx="23.954" cy="11.33" r=".048126"/>
   <circle cx="24.348" cy="11.209" r=".048126"/>
   <circle cx="24.511" cy="11.596" r=".048126"/>
   <circle cx="23.988" cy="11.737" r=".048126"/>
   <circle cx="23.796" cy="11.664" r=".048126"/>
   <circle cx="23.764" cy="11.954" r=".048126"/>
   <circle cx="24.341" cy="12.06" r=".048126"/>
   <circle cx="23.945" cy="11.823" r=".048126"/>
   <circle cx="23.906" cy="11.91" r=".048126"/>
   <circle cx="24.194" cy="12.604" r=".048126"/>
   <circle cx="24.098" cy="12.308" r=".048126"/>
   <circle cx="24.156" cy="12.563" r=".048126"/>
   <circle cx="23.639" cy="12.589" r=".048126"/>
   <circle cx="23.569" cy="12.309" r=".048126"/>
   <circle cx="23.494" cy="12.29" r=".048126"/>
   <circle cx="24.136" cy="12.427" r=".048126"/>
   <circle cx="23.934" cy="12.885" r=".048126"/>
   <circle cx="24.147" cy="12.785" r=".048126"/>
   <circle cx="24.395" cy="12.658" r=".048126"/>
   <circle cx="24.047" cy="12.692" r=".048126"/>
   <circle cx="23.562" cy="13.085" r=".048126"/>
   <circle cx="23.784" cy="12.942" r=".048126"/>
   <circle cx="23.851" cy="12.689" r=".048126"/>
   <circle cx="23.892" cy="12.411" r=".048126"/>
   <circle cx="23.782" cy="12.214" r=".048126"/>
   <circle cx="24.199" cy="11.991" r=".048126"/>
   <circle cx="24.072" cy="12.151" r=".048126"/>
   <circle cx="24.208" cy="11.862" r=".048126"/>
   <circle cx="24.246" cy="11.744" r=".048126"/>
   <circle cx="24.096" cy="12.194" r=".048126"/>
   <circle cx="24.095" cy="11.807" r=".048126"/>
   <circle cx="23.865" cy="11.795" r=".048126"/>
   <circle cx="24.057" cy="11.895" r=".048126"/>
   <circle cx="23.848" cy="11.78" r=".048126"/>
   <circle cx="23.59" cy="11.725" r=".048126"/>
   <circle cx="23.792" cy="11.812" r=".048126"/>
   <circle cx="24.09" cy="10.975" r=".048126"/>
   <circle cx="24.31" cy="11.244" r=".048126"/>
   <circle cx="23.822" cy="10.818" r=".048126"/>
   <circle cx="23.652" cy="10.745" r=".048126"/>
   <circle cx="24.168" cy="11.098" r=".048126"/>
   <circle cx="24.397" cy="10.831" r=".048126"/>
   <circle cx="24.335" cy="10.663" r=".048126"/>
   <circle cx="24.311" cy="10.32" r=".048126"/>
   <circle cx="23.632" cy="10.381" r=".048126"/>
   <circle cx="23.851" cy="10.548" r=".048126"/>
   <circle cx="23.734" cy="9.7865" r=".048126"/>
   <circle cx="24.013" cy="9.9117" r=".048126"/>
   <circle cx="24.176" cy="10.238" r=".048126"/>
   <circle cx="24.211" cy="9.993" r=".048126"/>
   <circle cx="23.971" cy="9.5153" r=".048126"/>
   <circle cx="23.867" cy="9.2186" r=".048126"/>
   <circle cx="23.644" cy="8.9742" r=".048126"/>
   <circle cx="24.135" cy="9.168" r=".048126"/>
   <circle cx="23.972" cy="8.562" r=".048126"/>
   <circle cx="24.178" cy="8.4015" r=".048126"/>
   <circle cx="23.789" cy="8.4456" r=".048126"/>
   <circle cx="23.58" cy="7.7921" r=".048126"/>
   <circle cx="23.461" cy="8.5101" r=".048126"/>
   <circle cx="23.889" cy="8.3038" r=".048126"/>
   <circle cx="23.402" cy="8.1242" r=".048126"/>
   <circle cx="23.349" cy="8.2029" r=".048126"/>
   <circle cx="23.23" cy="7.7096" r=".048126"/>
   <circle cx="23.564" cy="7.6426" r=".048126"/>
   <circle cx="23.297" cy="6.8654" r=".048126"/>
   <circle cx="22.709" cy="6.9051" r=".048126"/>
   <circle cx="23.226" cy="6.5278" r=".048126"/>
   <circle cx="22.703" cy="6.0113" r=".048126"/>
   <circle cx="22.453" cy="6.2602" r=".048126"/>
   <circle cx="22.693" cy="5.9113" r=".048126"/>
   <circle cx="22.27" cy="5.8636" r=".048126"/>
   <circle cx="21.71" cy="5.8466" r=".048126"/>
   <circle cx="21.752" cy="5.4622" r=".048126"/>
   <circle cx="21.499" cy="5.503" r=".048126"/>
   <circle cx="22.159" cy="5.2135" r=".048126"/>
   <circle cx="21.995" cy="5.3669" r=".048126"/>
   <circle cx="21.644" cy="4.6203" r=".048126"/>
   <circle cx="22.141" cy="4.7288" r=".048126"/>
   <circle cx="21.046" cy="4.6846" r=".048126"/>
   <circle cx="21.879" cy="4.7712" r=".048126"/>
   <circle cx="21.447" cy="4.29" r=".048126"/>
   <circle cx="21.318" cy="4.7711" r=".048126"/>
   <circle cx="21.718" cy="4.9796" r=".048126"/>
   <circle cx="21.487" cy="4.7354" r=".048126"/>
   <circle cx="21.966" cy="5.1907" r=".048126"/>
   <circle cx="21.632" cy="4.8166" r=".048126"/>
   <circle cx="22.014" cy="5.3957" r=".048126"/>
   <circle cx="22.43" cy="5.1565" r=".048126"/>
   <circle cx="22.612" cy="5.3513" r=".048126"/>
   <circle cx="22.078" cy="5.1745" r=".048126"/>
   <circle cx="22.503" cy="5.5809" r=".048126"/>
   <circle cx="22.782" cy="5.8769" r=".048126"/>
   <circle cx="22.525" cy="5.8944" r=".048126"/>
   <circle cx="22.817" cy="5.648" r=".048126"/>
   <circle cx="22.912" cy="5.4287" r=".048126"/>
   <circle cx="22.676" cy="5.4334" r=".048126"/>
   <circle cx="21.892" cy="5.1533" r=".048126"/>
   <circle cx="21.421" cy="5.0154" r=".048126"/>
   <circle cx="21.363" cy="4.5084" r=".048126"/>
   <circle cx="20.95" cy="4.165" r=".048126"/>
   <circle cx="20.493" cy="4.5497" r=".048126"/>
   <circle cx="20.711" cy="4.4337" r=".048126"/>
   <circle cx="20.541" cy="4.0592" r=".048126"/>
   <circle cx="20.117" cy="3.9887" r=".048126"/>
   <circle cx="20.098" cy="4.1626" r=".048126"/>
   <circle cx="19.953" cy="4.1063" r=".048126"/>
   <circle cx="19.507" cy="3.4869" r=".048126"/>
   <circle cx="19.765" cy="3.7041" r=".048126"/>
   <circle cx="19.349" cy="3.542" r=".048126"/>
   <circle cx="19.784" cy="3.2353" r=".048126"/>
   <circle cx="19.506" cy="3.0749" r=".048126"/>
   <circle cx="19.056" cy="3.2256" r=".048126"/>
   <circle cx="19.01" cy="3.6545" r=".048126"/>
   <circle cx="19.141" cy="3.2514" r=".048126"/>
   <circle cx="18.943" cy="3.4567" r=".048126"/>
   <circle cx="18.919" cy="3.1948" r=".048126"/>
   <circle cx="18.423" cy="2.8722" r=".048126"/>
   <circle cx="18.759" cy="3.4933" r=".048126"/>
   <circle cx="18.89" cy="3.0012" r=".048126"/>
   <circle cx="19.25" cy="3.5123" r=".048126"/>
   <circle cx="19.038" cy="3.088" r=".048126"/>
   <circle cx="19.934" cy="3.9411" r=".048126"/>
   <circle cx="19.722" cy="3.1994" r=".048126"/>
   <circle cx="19.85" cy="3.8907" r=".048126"/>
   <circle cx="20.198" cy="4.0439" r=".048126"/>
   <circle cx="19.589" cy="3.8404" r=".048126"/>
   <circle cx="18.841" cy="3.0654" r=".048126"/>
   <circle cx="18.086" cy="3.1531" r=".048126"/>
   <circle cx="17.992" cy="3.2598" r=".048126"/>
   <circle cx="17.611" cy="2.9717" r=".048126"/>
   <circle cx="17.945" cy="3.3266" r=".048126"/>
   <circle cx="17.733" cy="3.3825" r=".048126"/>
   <circle cx="18.03" cy="3.439" r=".048126"/>
   <circle cx="18.253" cy="3.0359" r=".048126"/>
   <circle cx="17.879" cy="3.2941" r=".048126"/>
   <circle cx="17.918" cy="2.978" r=".048126"/>
   <circle cx="17.957" cy="3.7914" r=".048126"/>
   <circle cx="17.96" cy="3.167" r=".048126"/>
   <circle cx="17.709" cy="3.2852" r=".048126"/>
   <circle cx="17.589" cy="3.5014" r=".048126"/>
   <circle cx="17.104" cy="3.3579" r=".048126"/>
   <circle cx="16.873" cy="4.0081" r=".048126"/>
   <circle cx="16.749" cy="3.9509" r=".048126"/>
   <circle cx="16.946" cy="3.7723" r=".048126"/>
   <circle cx="16.511" cy="4.1675" r=".048126"/>
   <circle cx="16.321" cy="3.5461" r=".048126"/>
   <circle cx="16.315" cy="3.8851" r=".048126"/>
   <circle cx="15.653" cy="3.6991" r=".048126"/>
   <circle cx="15.609" cy="3.9957" r=".048126"/>
   <circle cx="15.748" cy="3.6817" r=".048126"/>
   <circle cx="15.062" cy="4.0739" r=".048126"/>
   <circle cx="14.906" cy="4.0956" r=".048126"/>
   <circle cx="14.705" cy="3.398" r=".048126"/>
   <circle cx="14.486" cy="3.4256" r=".048126"/>
   <circle cx="14.336" cy="3.3702" r=".048126"/>
   <circle cx="13.957" cy="3.3296" r=".048126"/>
   <circle cx="14.202" cy="4.0475" r=".048126"/>
   <circle cx="13.496" cy="3.4967" r=".048126"/>
   <circle cx="13.494" cy="3.9083" r=".048126"/>
   <circle cx="13.323" cy="4.2236" r=".048126"/>
   <circle cx="12.972" cy="3.8891" r=".048126"/>
   <circle cx="12.715" cy="4.0648" r=".048126"/>
   <circle cx="12.83" cy="4.319" r=".048126"/>
   <circle cx="12.642" cy="4.202" r=".048126"/>
   <circle cx="12.586" cy="4.095" r=".048126"/>
   <circle cx="12.607" cy="3.5946" r=".048126"/>
   <circle cx="12.029" cy="3.5785" r=".048126"/>
   <circle cx="12.071" cy="4.2906" r=".048126"/>
   <circle cx="12.395" cy="3.6624" r=".048126"/>
   <circle cx="12.452" cy="3.9323" r=".048126"/>
   <circle cx="13.051" cy="3.5453" r=".048126"/>
   <circle cx="13.778" cy="3.5386" r=".048126"/>
   <circle cx="13.388" cy="3.5574" r=".048126"/>
   <circle cx="14.185" cy="3.9886" r=".048126"/>
   <circle cx="14.971" cy="3.3472" r=".048126"/>
   <circle cx="15.314" cy="3.4314" r=".048126"/>
   <circle cx="15.601" cy="3.3851" r=".048126"/>
   <circle cx="15.068" cy="3.2248" r=".048126"/>
   <circle cx="15.132" cy="2.3868" r=".048126"/>
   <circle cx="14.929" cy="2.9347" r=".048126"/>
   <circle cx="15.365" cy="2.6422" r=".048126"/>
   <circle cx="14.344" cy="2.6098" r=".048126"/>
   <circle cx="14.213" cy="2.6818" r=".048126"/>
   <circle cx="14.315" cy="2.664" r=".048126"/>
   <circle cx="14.867" cy="2.4195" r=".048126"/>
   <circle cx="14.576" cy="2.3467" r=".048126"/>
   <circle cx="15.242" cy="1.9243" r=".048126"/>
   <circle cx="15.021" cy="1.9521" r=".048126"/>
   <circle cx="16.095" cy="1.8033" r=".048126"/>
   <circle cx="16.327" cy="2.5772" r=".048126"/>
   <circle cx="16.964" cy="2.5384" r=".048126"/>
   <circle cx="16.564" cy="3.0892" r=".048126"/>
   <circle cx="17.209" cy="3.1916" r=".048126"/>
   <circle cx="16.951" cy="3.7685" r=".048126"/>
   <circle cx="16.076" cy="3.7596" r=".048126"/>
   <circle cx="14.467" cy="3.4213" r=".048126"/>
   <circle cx="13.277" cy="3.3179" r=".048126"/>
   <circle cx="12.712" cy="3.2532" r=".048126"/>
   <circle cx="12.455" cy="3.0079" r=".048126"/>
   <circle cx="11.594" cy="3.1675" r=".048126"/>
   <circle cx="11.609" cy="3.6598" r=".048126"/>
   <circle cx="11.347" cy="3.491" r=".048126"/>
   <circle cx="11.673" cy="3.1482" r=".048126"/>
   <circle cx="11.052" cy="3.2849" r=".048126"/>
   <circle cx="11.403" cy="3.8779" r=".048126"/>
   <circle cx="10.782" cy="3.7329" r=".048126"/>
   <circle cx="10.531" cy="3.9511" r=".048126"/>
   <circle cx="10.764" cy="3.8399" r=".048126"/>
   <circle cx="10.255" cy="4.3156" r=".048126"/>
   <circle cx="10.598" cy="3.966" r=".048126"/>
   <circle cx="9.9733" cy="3.8109" r=".048126"/>
   <circle cx="10.316" cy="3.9005" r=".048126"/>
   <circle cx="10.175" cy="4.6172" r=".048126"/>
   <circle cx="9.6818" cy="4.0795" r=".048126"/>
   <circle cx="9.4908" cy="4.7628" r=".048126"/>
   <circle cx="9.4911" cy="4.7427" r=".048126"/>
   <circle cx="9.6876" cy="4.2081" r=".048126"/>
   <circle cx="9.5621" cy="4.4283" r=".048126"/>
   <circle cx="9.6516" cy="4.3668" r=".048126"/>
   <circle cx="10.123" cy="3.9527" r=".048126"/>
   <circle cx="10.093" cy="3.9042" r=".048126"/>
   <circle cx="10.618" cy="3.6768" r=".048126"/>
   <circle cx="10.819" cy="3.8778" r=".048126"/>
   <circle cx="11.318" cy="3.5038" r=".048126"/>
   <circle cx="11.094" cy="4.2321" r=".048126"/>
   <circle cx="11.537" cy="4.067" r=".048126"/>
   <circle cx="11.118" cy="3.6358" r=".048126"/>
   <circle cx="11.099" cy="3.837" r=".048126"/>
   <circle cx="11.222" cy="3.7802" r=".048126"/>
   <circle cx="12.015" cy="2.9264" r=".048126"/>
   <circle cx="11.722" cy="3.2911" r=".048126"/>
   <circle cx="12.28" cy="3.2683" r=".048126"/>
   <circle cx="12.263" cy="3.2106" r=".048126"/>
   <circle cx="11.642" cy="3.4909" r=".048126"/>
   <circle cx="11.276" cy="3.294" r=".048126"/>
   <circle cx="10.628" cy="3.9755" r=".048126"/>
   <circle cx="10.537" cy="4.2522" r=".048126"/>
   <circle cx="9.5725" cy="4.2333" r=".048126"/>
   <circle cx="10.002" cy="4.5488" r=".048126"/>
   <circle cx="9.6611" cy="4.682" r=".048126"/>
   <circle cx="9.4288" cy="4.77" r=".048126"/>
   <circle cx="9.1009" cy="4.531" r=".048126"/>
   <circle cx="9.3911" cy="4.3559" r=".048126"/>
   <circle cx="9.7114" cy="4.3433" r=".048126"/>
   <circle cx="9.3431" cy="4.4155" r=".048126"/>
   <circle cx="8.7527" cy="5.2757" r=".048126"/>
   <circle cx="8.6884" cy="4.847" r=".048126"/>
   <circle cx="9.1935" cy="5.1007" r=".048126"/>
   <circle cx="8.6151" cy="5.4232" r=".048126"/>
   <circle cx="8.8154" cy="5.1809" r=".048126"/>
   <circle cx="8.3405" cy="5.0821" r=".048126"/>
   <circle cx="8.8912" cy="5.3476" r=".048126"/>
   <circle cx="8.8138" cy="5.6076" r=".048126"/>
   <circle cx="8.1396" cy="6.3823" r=".048126"/>
   <circle cx="7.8087" cy="6.3561" r=".048126"/>
   <circle cx="8.0344" cy="6.8977" r=".048126"/>
   <circle cx="8.0992" cy="6.7855" r=".048126"/>
   <circle cx="8.3147" cy="6.5812" r=".048126"/>
   <circle cx="7.8869" cy="6.5333" r=".048126"/>
   <circle cx="7.4429" cy="6.815" r=".048126"/>
   <circle cx="7.3585" cy="6.5182" r=".048126"/>
   <circle cx="7.1193" cy="6.8229" r=".048126"/>
   <circle cx="7.8606" cy="6.8805" r=".048126"/>
   <circle cx="7.2433" cy="6.7644" r=".048126"/>
   <circle cx="7.6109" cy="7.4713" r=".048126"/>
   <circle cx="7.4738" cy="7.6088" r=".048126"/>
   <circle cx="7.7383" cy="7.1857" r=".048126"/>
   <circle cx="7.1659" cy="7.8789" r=".048126"/>
   <circle cx="7.2389" cy="7.7442" r=".048126"/>
   <circle cx="6.8254" cy="7.4498" r=".048126"/>
   <circle cx="6.9167" cy="7.8686" r=".048126"/>
   <circle cx="6.8527" cy="8.0797" r=".048126"/>
   <circle cx="7.4279" cy="7.8957" r=".048126"/>
   <circle cx="7.0345" cy="8.0224" r=".048126"/>
   <circle cx="7.1131" cy="8.2004" r=".048126"/>
   <circle cx="6.6038" cy="8.1706" r=".048126"/>
   <circle cx="6.8422" cy="8.5476" r=".048126"/>
   <circle cx="7.2462" cy="8.0372" r=".048126"/>
   <circle cx="6.6817" cy="8.5142" r=".048126"/>
   <circle cx="7.1996" cy="8.4049" r=".048126"/>
   <circle cx="7.1649" cy="8.948" r=".048126"/>
   <circle cx="7.3167" cy="8.3465" r=".048126"/>
   <circle cx="7.0059" cy="8.2155" r=".048126"/>
   <circle cx="6.7573" cy="8.8844" r=".048126"/>
   <circle cx="7.2544" cy="8.5337" r=".048126"/>
   <circle cx="6.8115" cy="9.163" r=".048126"/>
   <circle cx="6.9306" cy="9.1605" r=".048126"/>
   <circle cx="6.9887" cy="8.256" r=".048126"/>
   <circle cx="6.9663" cy="8.8363" r=".048126"/>
   <circle cx="6.6914" cy="8.233" r=".048126"/>
   <circle cx="7.5331" cy="7.9434" r=".048126"/>
   <circle cx="7.5045" cy="8.0946" r=".048126"/>
   <circle cx="7.2489" cy="7.3751" r=".048126"/>
   <circle cx="7.0818" cy="7.6156" r=".048126"/>
   <circle cx="7.2116" cy="7.3546" r=".048126"/>
   <circle cx="7.1551" cy="7.5154" r=".048126"/>
   <circle cx="7.3548" cy="7.5734" r=".048126"/>
   <circle cx="7.2904" cy="7.4184" r=".048126"/>
   <circle cx="7.0794" cy="8.306" r=".048126"/>
   <circle cx="7.1039" cy="8.5784" r=".048126"/>
   <circle cx="6.8379" cy="8.806" r=".048126"/>
   <circle cx="6.8065" cy="8.7903" r=".048126"/>
   <circle cx="7.1032" cy="8.4331" r=".048126"/>
   <circle cx="6.4456" cy="9.059" r=".048126"/>
   <circle cx="7.0117" cy="8.9119" r=".048126"/>
   <circle cx="6.5012" cy="9.5234" r=".048126"/>
   <circle cx="7.3065" cy="9.5493" r=".048126"/>
   <circle cx="6.4205" cy="9.8928" r=".048126"/>
   <circle cx="6.9113" cy="9.6347" r=".048126"/>
   <circle cx="6.9767" cy="9.5796" r=".048126"/>
   <circle cx="6.3672" cy="9.7421" r=".048126"/>
   <circle cx="6.708" cy="9.5622" r=".048126"/>
   <circle cx="6.4068" cy="9.9368" r=".048126"/>
   <circle cx="6.3088" cy="10.276" r=".048126"/>
   <circle cx="6.6335" cy="10.632" r=".048126"/>
   <circle cx="6.6938" cy="10.651" r=".048126"/>
   <circle cx="6.6094" cy="10.5" r=".048126"/>
   <circle cx="6.6032" cy="10.727" r=".048126"/>
   <circle cx="7.2329" cy="10.583" r=".048126"/>
   <circle cx="6.7385" cy="10.662" r=".048126"/>
   <circle cx="6.892" cy="11.274" r=".048126"/>
   <circle cx="6.8636" cy="11.016" r=".048126"/>
   <circle cx="6.8831" cy="11.324" r=".048126"/>
   <circle cx="6.711" cy="11.323" r=".048126"/>
   <circle cx="6.9145" cy="11.437" r=".048126"/>
   <circle cx="6.834" cy="11.411" r=".048126"/>
   <circle cx="6.7316" cy="11.303" r=".048126"/>
   <circle cx="6.4285" cy="11.289" r=".048126"/>
   <circle cx="7.0363" cy="11.852" r=".048126"/>
   <circle cx="6.3986" cy="11.816" r=".048126"/>
   <circle cx="7.0692" cy="11.865" r=".048126"/>
   <circle cx="6.9169" cy="11.862" r=".048126"/>
   <circle cx="6.6358" cy="11.418" r=".048126"/>
   <circle cx="6.5523" cy="11.99" r=".048126"/>
   <circle cx="6.7342" cy="11.653" r=".048126"/>
   <circle cx="6.9802" cy="12.34" r=".048126"/>
   <circle cx="6.6251" cy="11.905" r=".048126"/>
   <circle cx="6.5666" cy="12.437" r=".048126"/>
   <circle cx="6.5736" cy="12.832" r=".048126"/>
   <circle cx="6.7609" cy="12.605" r=".048126"/>
   <circle cx="6.8676" cy="12.45" r=".048126"/>
   <circle cx="6.4295" cy="12.219" r=".048126"/>
   <circle cx="6.9173" cy="12.509" r=".048126"/>
   <circle cx="6.7002" cy="13.165" r=".048126"/>
   <circle cx="6.6501" cy="12.932" r=".048126"/>
   <circle cx="6.7396" cy="13.111" r=".048126"/>
   <circle cx="6.7278" cy="12.823" r=".048126"/>
   <circle cx="7.0102" cy="13.107" r=".048126"/>
   <circle cx="6.7902" cy="12.657" r=".048126"/>
   <circle cx="6.6338" cy="12.902" r=".048126"/>
   <circle cx="6.6143" cy="12.7" r=".048126"/>
   <circle cx="6.5494" cy="12.688" r=".048126"/>
   <circle cx="6.7651" cy="13.203" r=".048126"/>
   <circle cx="6.3798" cy="12.801" r=".048126"/>
   <circle cx="6.3959" cy="13.149" r=".048126"/>
   <circle cx="6.3389" cy="12.761" r=".048126"/>
   <circle cx="6.852" cy="13.231" r=".048126"/>
   <circle cx="6.6912" cy="13.38" r=".048126"/>
   <circle cx="6.2988" cy="13.037" r=".048126"/>
   <circle cx="6.3167" cy="12.517" r=".048126"/>
   <circle cx="6.8642" cy="12.567" r=".048126"/>
   <circle cx="6.6462" cy="11.822" r=".048126"/>
   <circle cx="6.3057" cy="11.98" r=".048126"/>
   <circle cx="6.5584" cy="11.709" r=".048126"/>
   <circle cx="6.8399" cy="11.723" r=".048126"/>
   <circle cx="6.2774" cy="11.306" r=".048126"/>
   <circle cx="6.7612" cy="10.976" r=".048126"/>
   <circle cx="6.462" cy="11.131" r=".048126"/>
   <circle cx="6.7692" cy="10.936" r=".048126"/>
   <circle cx="6.7806" cy="10.933" r=".048126"/>
   <circle cx="6.7071" cy="11.173" r=".048126"/>
   <circle cx="6.8313" cy="10.081" r=".048126"/>
   <circle cx="6.9348" cy="9.981" r=".048126"/>
   <circle cx="6.5264" cy="10.543" r=".048126"/>
   <circle cx="6.6728" cy="9.8122" r=".048126"/>
   <circle cx="6.9265" cy="10.454" r=".048126"/>
   <circle cx="6.633" cy="9.6885" r=".048126"/>
   <circle cx="7.1602" cy="9.8102" r=".048126"/>
   <circle cx="7.3746" cy="9.7321" r=".048126"/>
   <circle cx="6.8725" cy="10.06" r=".048126"/>
   <circle cx="7.4494" cy="9.7567" r=".048126"/>
   <circle cx="7.3969" cy="9.1282" r=".048126"/>
   <circle cx="7.3116" cy="9.3111" r=".048126"/>
   <circle cx="7.2205" cy="8.5118" r=".048126"/>
   <circle cx="7.367" cy="8.1262" r=".048126"/>
   <circle cx="7.9421" cy="6.949" r=".048126"/>
   <circle cx="8.0997" cy="6.3724" r=".048126"/>
   <circle cx="8.2693" cy="6.9881" r=".048126"/>
   <circle cx="8.1639" cy="6.6146" r=".048126"/>
   <circle cx="8.3488" cy="6.8773" r=".048126"/>
   <circle cx="8.1866" cy="6.5835" r=".048126"/>
   <circle cx="8.523" cy="6.1549" r=".048126"/>
   <circle cx="8.3369" cy="6.0714" r=".048126"/>
   <circle cx="8.7878" cy="5.9672" r=".048126"/>
   <circle cx="8.5095" cy="6.4353" r=".048126"/>
   <circle cx="8.2305" cy="5.6155" r=".048126"/>
   <circle cx="8.3131" cy="5.4986" r=".048126"/>
   <circle cx="8.6526" cy="6.0174" r=".048126"/>
   <circle cx="8.1918" cy="5.8933" r=".048126"/>
   <circle cx="8.4412" cy="5.5495" r=".048126"/>
   <circle cx="8.4947" cy="5.0163" r=".048126"/>
   <circle cx="8.9962" cy="5.1475" r=".048126"/>
   <circle cx="8.9754" cy="4.5591" r=".048126"/>
   <circle cx="9.3861" cy="4.8801" r=".048126"/>
   <circle cx="9.1138" cy="5.1481" r=".048126"/>
   <circle cx="9.6562" cy="4.5264" r=".048126"/>
   <circle cx="9.6256" cy="3.9617" r=".048126"/>
   <circle cx="9.8406" cy="4.36" r=".048126"/>
   <circle cx="10.266" cy="3.6885" r=".048126"/>
   <circle cx="10.407" cy="3.8555" r=".048126"/>
   <circle cx="10.857" cy="4.1209" r=".048126"/>
   <circle cx="10.374" cy="3.9294" r=".048126"/>
   <circle cx="10.607" cy="3.9487" r=".048126"/>
   <circle cx="11.273" cy="4.1389" r=".048126"/>
   <circle cx="11.464" cy="3.9651" r=".048126"/>
   <circle cx="12.009" cy="3.3861" r=".048126"/>
   <circle cx="12.108" cy="3.6304" r=".048126"/>
   <circle cx="12.715" cy="3.4789" r=".048126"/>
   <circle cx="13.485" cy="2.8916" r=".048126"/>
   <circle cx="14.337" cy="2.8208" r=".048126"/>
   <circle cx="13.295" cy="2.8884" r=".048126"/>
   <circle cx="13.616" cy="2.9281" r=".048126"/>
   <circle cx="13.06" cy="3.1067" r=".048126"/>
   <circle cx="13.139" cy="3.2005" r=".048126"/>
   <circle cx="13.375" cy="3.5561" r=".048126"/>
   <circle cx="13.168" cy="3.4619" r=".048126"/>
   <circle cx="13.129" cy="3.6188" r=".048126"/>
   <circle cx="13.197" cy="4.0101" r=".048126"/>
   <circle cx="13.5" cy="3.7587" r=".048126"/>
   <circle cx="12.743" cy="4.1388" r=".048126"/>
   <circle cx="12.961" cy="4.4244" r=".048126"/>
   <circle cx="12.927" cy="4.1831" r=".048126"/>
   <circle cx="12.893" cy="4.3585" r=".048126"/>
   <circle cx="13.547" cy="4.326" r=".048126"/>
   <circle cx="13.731" cy="4.2728" r=".048126"/>
   <circle cx="14.019" cy="3.9945" r=".048126"/>
   <circle cx="14.28" cy="3.6758" r=".048126"/>
   <circle cx="15.083" cy="3.927" r=".048126"/>
   <circle cx="15.418" cy="4.6862" r=".048126"/>
   <circle cx="15.793" cy="4.6935" r=".048126"/>
   <circle cx="16.542" cy="4.0629" r=".048126"/>
   <circle cx="16.457" cy="4.4174" r=".048126"/>
   <circle cx="16.057" cy="3.8187" r=".048126"/>
   <circle cx="16.722" cy="3.8141" r=".048126"/>
   <circle cx="17.152" cy="3.9334" r=".048126"/>
   <circle cx="17.17" cy="3.4431" r=".048126"/>
   <circle cx="17.667" cy="4.1354" r=".048126"/>
   <circle cx="17.529" cy="3.6481" r=".048126"/>
   <circle cx="17.638" cy="3.3528" r=".048126"/>
   <circle cx="18.223" cy="3.6916" r=".048126"/>
   <circle cx="17.824" cy="3.7836" r=".048126"/>
   <circle cx="18.159" cy="3.4634" r=".048126"/>
   <circle cx="17.468" cy="3.3199" r=".048126"/>
   <circle cx="17.353" cy="3.3039" r=".048126"/>
   <circle cx="16.472" cy="3.3381" r=".048126"/>
   <circle cx="16.086" cy="4.2625" r=".048126"/>
   <circle cx="15.725" cy="3.8033" r=".048126"/>
   <circle cx="15.407" cy="4.2878" r=".048126"/>
   <circle cx="14.852" cy="3.8576" r=".048126"/>
   <circle cx="14.9" cy="4.5587" r=".048126"/>
   <circle cx="14.471" cy="4.3493" r=".048126"/>
   <circle cx="13.988" cy="3.9734" r=".048126"/>
   <circle cx="13.701" cy="4.3512" r=".048126"/>
   <circle cx="13.59" cy="4.4548" r=".048126"/>
   <circle cx="13.002" cy="4.4748" r=".048126"/>
   <circle cx="12.923" cy="3.9251" r=".048126"/>
   <circle cx="13.157" cy="4.5748" r=".048126"/>
   <circle cx="13.084" cy="3.9105" r=".048126"/>
   <circle cx="13.784" cy="4.0541" r=".048126"/>
   <circle cx="13.618" cy="4.4972" r=".048126"/>
   <circle cx="14.548" cy="4.873" r=".048126"/>
   <circle cx="14.762" cy="4.5374" r=".048126"/>
   <circle cx="15.199" cy="4.6809" r=".048126"/>
   <circle cx="15.43" cy="4.2182" r=".048126"/>
   <circle cx="16.654" cy="4.4467" r=".048126"/>
   <circle cx="17.181" cy="3.9978" r=".048126"/>
   <circle cx="16.568" cy="3.9064" r=".048126"/>
   <circle cx="17.174" cy="4.4849" r=".048126"/>
   <circle cx="16.884" cy="3.6654" r=".048126"/>
   <circle cx="17.354" cy="3.7963" r=".048126"/>
   <circle cx="17.3" cy="3.6545" r=".048126"/>
   <circle cx="17.707" cy="3.7069" r=".048126"/>
   <circle cx="17.764" cy="4.015" r=".048126"/>
   <circle cx="18.191" cy="3.8073" r=".048126"/>
   <circle cx="17.73" cy="3.7535" r=".048126"/>
   <circle cx="18.053" cy="3.7945" r=".048126"/>
   <circle cx="17.678" cy="3.1061" r=".048126"/>
   <circle cx="18.134" cy="3.1688" r=".048126"/>
   <circle cx="18.169" cy="3.3578" r=".048126"/>
   <circle cx="17.785" cy="3.3995" r=".048126"/>
   <circle cx="17.967" cy="3.3191" r=".048126"/>
   <circle cx="17.68" cy="3.8507" r=".048126"/>
   <circle cx="17.781" cy="3.891" r=".048126"/>
   <circle cx="17.187" cy="4.3644" r=".048126"/>
   <circle cx="16.298" cy="4.4554" r=".048126"/>
   <circle cx="15.849" cy="4.065" r=".048126"/>
   <circle cx="15.445" cy="4.6781" r=".048126"/>
   <circle cx="15.196" cy="4.1191" r=".048126"/>
   <circle cx="14.351" cy="4.9388" r=".048126"/>
   <circle cx="13.71" cy="4.4748" r=".048126"/>
   <circle cx="13.688" cy="4.7597" r=".048126"/>
   <circle cx="13.344" cy="4.6835" r=".048126"/>
   <circle cx="13.129" cy="4.2959" r=".048126"/>
   <circle cx="13.893" cy="4.5355" r=".048126"/>
   <circle cx="14.136" cy="4.1206" r=".048126"/>
   <circle cx="14.703" cy="4.1025" r=".048126"/>
   <circle cx="15.78" cy="4.2354" r=".048126"/>
   <circle cx="16.857" cy="4.1744" r=".048126"/>
   <circle cx="17.076" cy="4.1199" r=".048126"/>
   <circle cx="17.573" cy="3.7662" r=".048126"/>
   <circle cx="18.08" cy="4.143" r=".048126"/>
   <circle cx="18.03" cy="3.6529" r=".048126"/>
   <circle cx="18.481" cy="3.4912" r=".048126"/>
   <circle cx="18.624" cy="3.8318" r=".048126"/>
   <circle cx="14.187" cy="3.848" r=".048126"/>
   <circle cx="14.788" cy="4.0774" r=".048126"/>
   <circle cx="14.844" cy="4.0502" r=".048126"/>
   <circle cx="15.057" cy="4.5055" r=".048126"/>
   <circle cx="15.101" cy="4.46" r=".048126"/>
   <circle cx="15.031" cy="4.3829" r=".048126"/>
   <circle cx="15.958" cy="3.8473" r=".048126"/>
   <circle cx="16.448" cy="4.2407" r=".048126"/>
   <circle cx="15.663" cy="4.3344" r=".048126"/>
   <circle cx="16.614" cy="4.6373" r=".048126"/>
   <circle cx="16.41" cy="4.052" r=".048126"/>
   <circle cx="17.062" cy="4.1989" r=".048126"/>
   <circle cx="17.391" cy="4.5208" r=".048126"/>
   <circle cx="17.493" cy="4.2783" r=".048126"/>
   <circle cx="17.144" cy="4.2056" r=".048126"/>
   <circle cx="17.246" cy="4.1088" r=".048126"/>
   <circle cx="17.855" cy="4.0308" r=".048126"/>
   <circle cx="18.133" cy="3.6631" r=".048126"/>
   <circle cx="18.725" cy="3.7826" r=".048126"/>
   <circle cx="18.395" cy="4.0518" r=".048126"/>
   <circle cx="18.902" cy="3.5538" r=".048126"/>
   <circle cx="19.15" cy="3.1142" r=".048126"/>
   <circle cx="23.492" cy="6.9594" r=".048126"/>
   <circle cx="23.971" cy="7.1747" r=".048126"/>
   <circle cx="23.601" cy="7.4459" r=".048126"/>
   <circle cx="23.844" cy="7.0898" r=".048126"/>
   <circle cx="23.426" cy="7.609" r=".048126"/>
   <circle cx="23.672" cy="7.2768" r=".048126"/>
   <circle cx="23.902" cy="7.1992" r=".048126"/>
   <circle cx="23.799" cy="7.4905" r=".048126"/>
   <circle cx="23.753" cy="7.7895" r=".048126"/>
   <circle cx="23.863" cy="7.7858" r=".048126"/>
   <circle cx="23.832" cy="7.9055" r=".048126"/>
   <circle cx="23.675" cy="7.7526" r=".048126"/>
   <circle cx="24.05" cy="7.801" r=".048126"/>
   <circle cx="23.732" cy="8.1855" r=".048126"/>
   <circle cx="23.914" cy="7.9358" r=".048126"/>
   <circle cx="23.77" cy="8.178" r=".048126"/>
   <circle cx="23.856" cy="8.1006" r=".048126"/>
   <circle cx="24.271" cy="8.6116" r=".048126"/>
   <circle cx="24.43" cy="8.7358" r=".048126"/>
   <circle cx="24.282" cy="8.8929" r=".048126"/>
   <circle cx="23.932" cy="11.332" r=".048126"/>
   <circle cx="23.826" cy="11.147" r=".048126"/>
   <circle cx="24.337" cy="10.912" r=".048126"/>
   <circle cx="24.231" cy="10.444" r=".048126"/>
   <circle cx="13.436" cy="4.3493" r=".048126"/>
   <circle cx="13.737" cy="4.6312" r=".048126"/>
   <circle cx="13.869" cy="4.3925" r=".048126"/>
   <circle cx="13.53" cy="4.4408" r=".048126"/>
   <circle cx="13.473" cy="4.4913" r=".048126"/>
   <circle cx="13.641" cy="4.6702" r=".048126"/>
   <circle cx="14.192" cy="4.3783" r=".048126"/>
   <circle cx="14.037" cy="4.6368" r=".048126"/>
   <circle cx="14.458" cy="4.6657" r=".048126"/>
   <circle cx="14.065" cy="4.6677" r=".048126"/>
   <circle cx="14.217" cy="4.7494" r=".048126"/>
   <circle cx="14.285" cy="4.7143" r=".048126"/>
   <circle cx="14.194" cy="4.2273" r=".048126"/>
   <circle cx="14.272" cy="4.6789" r=".048126"/>
   <circle cx="14.605" cy="4.7607" r=".048126"/>
   <circle cx="14.753" cy="4.6908" r=".048126"/>
   <circle cx="14.847" cy="4.4163" r=".048126"/>
   <circle cx="14.768" cy="4.3791" r=".048126"/>
   <circle cx="14.606" cy="4.5313" r=".048126"/>
   <circle cx="14.833" cy="4.6997" r=".048126"/>
   <circle cx="15.209" cy="4.7028" r=".048126"/>
   <circle cx="15.07" cy="4.8902" r=".048126"/>
   <circle cx="14.969" cy="4.8312" r=".048126"/>
   <circle cx="15.24" cy="4.4411" r=".048126"/>
   <circle cx="15.296" cy="4.8487" r=".048126"/>
   <circle cx="15.485" cy="4.4364" r=".048126"/>
   <circle cx="15.941" cy="4.7144" r=".048126"/>
   <circle cx="16.246" cy="4.6869" r=".048126"/>
   <circle cx="16.133" cy="4.6636" r=".048126"/>
   <circle cx="16.045" cy="4.5519" r=".048126"/>
   <circle cx="16.124" cy="4.9545" r=".048126"/>
   <circle cx="16.147" cy="4.4952" r=".048126"/>
   <circle cx="16.505" cy="4.7429" r=".048126"/>
   <circle cx="16.153" cy="4.5586" r=".048126"/>
   <circle cx="16.198" cy="4.3296" r=".048126"/>
   <circle cx="16.267" cy="4.5139" r=".048126"/>
   <circle cx="16.167" cy="4.6997" r=".048126"/>
   <circle cx="16.479" cy="4.9091" r=".048126"/>
   <circle cx="16.701" cy="4.7668" r=".048126"/>
   <circle cx="16.972" cy="4.4261" r=".048126"/>
   <circle cx="16.42" cy="4.727" r=".048126"/>
   <circle cx="16.502" cy="4.4027" r=".048126"/>
   <circle cx="17.142" cy="4.6623" r=".048126"/>
   <circle cx="16.642" cy="4.3223" r=".048126"/>
   <circle cx="16.803" cy="4.7134" r=".048126"/>
   <circle cx="17.08" cy="4.4623" r=".048126"/>
   <circle cx="17.317" cy="4.6976" r=".048126"/>
   <circle cx="16.915" cy="4.7882" r=".048126"/>
   <circle cx="17.372" cy="4.4663" r=".048126"/>
   <circle cx="17.089" cy="4.2908" r=".048126"/>
   <circle cx="17.338" cy="4.6039" r=".048126"/>
   <circle cx="17.149" cy="4.6124" r=".048126"/>
   <circle cx="17.187" cy="4.7143" r=".048126"/>
   <circle cx="17.384" cy="4.592" r=".048126"/>
   <circle cx="17.611" cy="4.674" r=".048126"/>
   <circle cx="17.22" cy="4.5653" r=".048126"/>
   <circle cx="17.309" cy="4.1625" r=".048126"/>
   <circle cx="17.585" cy="4.6316" r=".048126"/>
   <circle cx="17.441" cy="4.8166" r=".048126"/>
   <circle cx="17.301" cy="4.3069" r=".048126"/>
   <circle cx="17.32" cy="4.6262" r=".048126"/>
   <circle cx="17.9" cy="4.1947" r=".048126"/>
   <circle cx="17.703" cy="4.0418" r=".048126"/>
   <circle cx="17.892" cy="4.4104" r=".048126"/>
   <circle cx="18.034" cy="3.9266" r=".048126"/>
   <circle cx="18.063" cy="4.23" r=".048126"/>
   <circle cx="18.107" cy="4.1829" r=".048126"/>
   <circle cx="18.188" cy="4.2983" r=".048126"/>
   <circle cx="17.975" cy="4.079" r=".048126"/>
   <circle cx="18.137" cy="3.8857" r=".048126"/>
   <circle cx="17.83" cy="4.3135" r=".048126"/>
   <circle cx="17.813" cy="4.1375" r=".048126"/>
   <circle cx="18.351" cy="4.0449" r=".048126"/>
   <circle cx="17.839" cy="2.6852" r=".048126"/>
   <circle cx="17.913" cy="2.6937" r=".048126"/>
   <circle cx="17.99" cy="2.7759" r=".048126"/>
   <circle cx="17.731" cy="2.4759" r=".048126"/>
   <circle cx="17.652" cy="2.4206" r=".048126"/>
   <circle cx="17.368" cy="2.2233" r=".048126"/>
   <circle cx="17.213" cy="2.2365" r=".048126"/>
   <circle cx="17.007" cy="2.6219" r=".048126"/>
   <circle cx="16.834" cy="2.7423" r=".048126"/>
   <circle cx="16.991" cy="2.2113" r=".048126"/>
   <circle cx="16.962" cy="2.3086" r=".048126"/>
   <circle cx="16.433" cy="2.1385" r=".048126"/>
   <circle cx="16.458" cy="2.1319" r=".048126"/>
   <circle cx="16.575" cy="2.3891" r=".048126"/>
   <circle cx="16.542" cy="2.0274" r=".048126"/>
   <circle cx="16.236" cy="2.1749" r=".048126"/>
   <circle cx="16.158" cy="2.4805" r=".048126"/>
   <circle cx="16.17" cy="2.5466" r=".048126"/>
   <circle cx="15.772" cy="2.028" r=".048126"/>
   <circle cx="15.897" cy="2.185" r=".048126"/>
   <circle cx="15.776" cy="2.1463" r=".048126"/>
   <circle cx="15.752" cy="2.0359" r=".048126"/>
   <circle cx="15.793" cy="2.1428" r=".048126"/>
   <circle cx="15.504" cy="2.4694" r=".048126"/>
   <circle cx="15.834" cy="2.395" r=".048126"/>
   <circle cx="15.719" cy="2.0457" r=".048126"/>
   <circle cx="15.417" cy="2.1953" r=".048126"/>
   <circle cx="15.706" cy="2.2615" r=".048126"/>
   <circle cx="14.435" cy="2.2577" r=".048126"/>
   <circle cx="14.281" cy="2.2794" r=".048126"/>
   <circle cx="14.388" cy="2.4081" r=".048126"/>
   <circle cx="13.995" cy="2.6786" r=".048126"/>
   <circle cx="14.094" cy="2.5108" r=".048126"/>
   <circle cx="13.947" cy="2.1746" r=".048126"/>
   <circle cx="13.658" cy="2.3072" r=".048126"/>
   <circle cx="13.778" cy="2.108" r=".048126"/>
   <circle cx="13.439" cy="2.3049" r=".048126"/>
   <circle cx="12.992" cy="2.7911" r=".048126"/>
   <circle cx="12.948" cy="2.8082" r=".048126"/>
   <circle cx="12.829" cy="2.8369" r=".048126"/>
   <circle cx="12.907" cy="2.8389" r=".048126"/>
   <circle cx="12.988" cy="2.4578" r=".048126"/>
   <circle cx="12.544" cy="2.7405" r=".048126"/>
   <circle cx="12.035" cy="3.0619" r=".048126"/>
   <circle cx="8.6687" cy="5.3788" r=".048126"/>
   <circle cx="8.5327" cy="5.6457" r=".048126"/>
   <circle cx="8.7222" cy="5.2654" r=".048126"/>
   <circle cx="8.2928" cy="5.5148" r=".048126"/>
   <circle cx="8.4975" cy="5.9461" r=".048126"/>
   <circle cx="8.4286" cy="5.9193" r=".048126"/>
   <circle cx="8.3469" cy="5.8946" r=".048126"/>
   <circle cx="8.5585" cy="6.2125" r=".048126"/>
   <circle cx="8.4341" cy="6.0222" r=".048126"/>
   <circle cx="8.5459" cy="6.001" r=".048126"/>
   <circle cx="8.091" cy="6.1111" r=".048126"/>
   <circle cx="8.3964" cy="6.2022" r=".048126"/>
   <circle cx="8.2631" cy="6.4244" r=".048126"/>
   <circle cx="7.9486" cy="6.6183" r=".048126"/>
   <circle cx="8.1748" cy="6.5104" r=".048126"/>
   <circle cx="8.2727" cy="6.9619" r=".048126"/>
   <circle cx="7.8098" cy="6.7357" r=".048126"/>
   <circle cx="7.8855" cy="6.7877" r=".048126"/>
   <circle cx="7.9702" cy="7.216" r=".048126"/>
   <circle cx="7.9581" cy="7.8517" r=".048126"/>
   <circle cx="7.9325" cy="8.0756" r=".048126"/>
   <circle cx="7.5476" cy="8.2229" r=".048126"/>
   <circle cx="7.62" cy="8.1445" r=".048126"/>
   <circle cx="7.6097" cy="8.1019" r=".048126"/>
   <circle cx="7.1175" cy="8.5764" r=".048126"/>
   <circle cx="7.3637" cy="8.5692" r=".048126"/>
   <circle cx="7.243" cy="8.5205" r=".048126"/>
   <circle cx="7.1298" cy="8.5887" r=".048126"/>
   <circle cx="7.3989" cy="8.7108" r=".048126"/>
   <circle cx="6.924" cy="8.7361" r=".048126"/>
   <circle cx="7.0301" cy="9.0604" r=".048126"/>
   <circle cx="6.9725" cy="9.1075" r=".048126"/>
   <circle cx="6.7735" cy="9.8027" r=".048126"/>
   <circle cx="7.2192" cy="9.8168" r=".048126"/>
   <circle cx="7.0236" cy="9.9791" r=".048126"/>
   <circle cx="6.5869" cy="10.179" r=".048126"/>
   <circle cx="7.2025" cy="10.49" r=".048126"/>
   <circle cx="6.9722" cy="10.651" r=".048126"/>
   <circle cx="6.6153" cy="10.389" r=".048126"/>
   <circle cx="7.1386" cy="10.349" r=".048126"/>
   <circle cx="6.8094" cy="10.59" r=".048126"/>
   <circle cx="6.971" cy="10.568" r=".048126"/>
   <circle cx="6.7922" cy="10.729" r=".048126"/>
   <circle cx="7.1032" cy="11.096" r=".048126"/>
   <circle cx="6.8053" cy="11.285" r=".048126"/>
   <circle cx="6.6383" cy="11.846" r=".048126"/>
   <circle cx="6.7029" cy="11.854" r=".048126"/>
   <circle cx="6.8113" cy="11.822" r=".048126"/>
   <circle cx="6.7329" cy="12.411" r=".048126"/>
   <circle cx="6.8021" cy="12.092" r=".048126"/>
   <circle cx="6.4149" cy="12.713" r=".048126"/>
   <circle cx="6.8094" cy="12.794" r=".048126"/>
   <circle cx="19.968" cy="3.4861" r=".048126"/>
   <circle cx="19.684" cy="3.3414" r=".048126"/>
   <circle cx="19.515" cy="3.7629" r=".048126"/>
   <circle cx="19.421" cy="3.4247" r=".048126"/>
   <circle cx="19.719" cy="3.7672" r=".048126"/>
   <circle cx="20.375" cy="3.3609" r=".048126"/>
   <circle cx="20.513" cy="3.5542" r=".048126"/>
   <circle cx="20.177" cy="3.7091" r=".048126"/>
   <circle cx="20.337" cy="3.6184" r=".048126"/>
   <circle cx="20.893" cy="3.821" r=".048126"/>
   <circle cx="20.813" cy="4.6233" r=".048126"/>
   <circle cx="20.81" cy="4.5318" r=".048126"/>
   <circle cx="20.785" cy="4.5972" r=".048126"/>
   <circle cx="21.131" cy="4.6749" r=".048126"/>
   <circle cx="21.159" cy="4.8306" r=".048126"/>
   <circle cx="21.399" cy="4.6857" r=".048126"/>
   <circle cx="21.562" cy="4.9016" r=".048126"/>
   <circle cx="21.034" cy="4.9406" r=".048126"/>
   <circle cx="21.144" cy="4.752" r=".048126"/>
   <circle cx="21.442" cy="4.6672" r=".048126"/>
   <circle cx="21.694" cy="5.0278" r=".048126"/>
   <circle cx="21.251" cy="5.2444" r=".048126"/>
   <circle cx="21.389" cy="5.2703" r=".048126"/>
   <circle cx="21.586" cy="5.4737" r=".048126"/>
   <circle cx="21.572" cy="5.4833" r=".048126"/>
   <circle cx="21.46" cy="5.195" r=".048126"/>
   <circle cx="21.917" cy="5.2812" r=".048126"/>
   <circle cx="21.635" cy="5.4712" r=".048126"/>
   <circle cx="21.286" cy="5.1835" r=".048126"/>
   <circle cx="21.371" cy="5.2001" r=".048126"/>
   <circle cx="21.405" cy="5.2438" r=".048126"/>
   <circle cx="21.536" cy="5.0623" r=".048126"/>
   <circle cx="21.606" cy="5.2349" r=".048126"/>
   <circle cx="20.844" cy="4.8869" r=".048126"/>
   <circle cx="20.95" cy="4.6464" r=".048126"/>
   <circle cx="21.134" cy="4.5233" r=".048126"/>
   <circle cx="20.849" cy="4.519" r=".048126"/>
   <circle cx="20.58" cy="4.3736" r=".048126"/>
   <circle cx="20.773" cy="4.5498" r=".048126"/>
   <circle cx="20.91" cy="4.2703" r=".048126"/>
   <circle cx="20.399" cy="4.5585" r=".048126"/>
   <circle cx="20.484" cy="3.7363" r=".048126"/>
   <circle cx="19.97" cy="3.7008" r=".048126"/>
   <circle cx="20.071" cy="4.0364" r=".048126"/>
   <circle cx="19.755" cy="3.689" r=".048126"/>
   <circle cx="19.515" cy="3.5951" r=".048126"/>
   <circle cx="19.528" cy="3.0176" r=".048126"/>
   <circle cx="18.977" cy="3.1374" r=".048126"/>
  </g>
 </g>
</svg>
