<svg xmlns="http://www.w3.org/2000/svg" width="64" height="64" viewBox="0 0 64 64">
    <path d="M 24.669922 3 C 21.770922 3 6 6.79 6 11.625 L 6 42 C 6 45.589 8.813 48 13 48 L 15.923828 48 C 15.270828 52.403 10.302 54 6 54 L 2 54 C 1.448 54 1 54.448 1 55 L 1 59 C 1 59.552 1.448 60 2 60 L 55 60 C 55.047 60 55.095578 59.997234 55.142578 59.990234 C 55.220578 59.979234 63 58.766 63 50 C 63 49.448 62.552 49 62 49 L 58 49 C 57.448 49 57 49.448 57 50 C 57 52.206 55.206 54 53 54 L 52 54 C 45.822 54 43.841234 49.918594 43.240234 47.933594 C 47.794234 47.803594 50.843375 47.505094 52.734375 47.246094 C 57.597375 46.579094 58 45.803 58 45 C 58 36.634 53.722109 31.758891 45.912109 31.087891 C 45.943109 30.967891 45.977812 30.858375 46.007812 30.734375 C 46.139812 30.198375 45.810437 29.656391 45.273438 29.525391 C 44.735438 29.394391 44.195453 29.720812 44.064453 30.257812 C 44.001453 30.515812 43.935141 30.754094 43.869141 30.996094 C 42.978141 30.984094 41.795813 30.835531 40.507812 30.519531 C 40.567813 30.390531 40.624828 30.263719 40.673828 30.136719 C 40.873828 29.621719 40.617516 29.041797 40.103516 28.841797 C 39.587516 28.640797 39.010547 28.897109 38.810547 29.412109 C 38.746547 29.576109 38.661359 29.750734 38.568359 29.927734 C 37.499359 29.533734 36.428312 29.017328 35.445312 28.361328 C 35.531312 28.275328 35.618219 28.189469 35.699219 28.105469 C 36.082219 27.708469 36.071828 27.074406 35.673828 26.691406 C 35.276828 26.308406 34.643766 26.32175 34.259766 26.71875 C 34.139766 26.84275 34.009953 26.970609 33.876953 27.099609 C 33.174953 26.418609 32.576859 25.632469 32.130859 24.730469 C 32.371859 24.593469 32.614328 24.451828 32.861328 24.298828 C 33.331328 24.007828 33.4775 23.392828 33.1875 22.923828 C 32.8975 22.453828 32.280547 22.308656 31.810547 22.597656 C 31.678547 22.678656 31.553828 22.748219 31.423828 22.824219 C 31.082828 21.637219 30.889063 20.442094 30.789062 19.246094 C 31.007062 19.184094 31.221219 19.125734 31.449219 19.052734 C 31.975219 18.886734 32.269516 18.324828 32.103516 17.798828 C 31.937516 17.271828 31.377609 16.980484 30.849609 17.146484 C 30.794609 17.163484 30.747359 17.174406 30.693359 17.191406 C 30.682359 15.842406 30.750125 14.498922 30.828125 13.169922 C 31.069125 13.132922 31.295594 13.097641 31.558594 13.056641 C 32.104594 12.969641 32.476625 12.458109 32.390625 11.912109 C 32.303625 11.367109 31.792141 10.996078 31.244141 11.080078 C 31.137141 11.097078 31.042453 11.112906 30.939453 11.128906 C 30.972453 10.406906 31 9.697 31 9 C 31 6.263 29.902922 3 24.669922 3 z M 24.669922 5 C 27.745922 5 29 6.159 29 9 C 29 9.778 28.963922 10.592781 28.919922 11.425781 C 26.573922 11.744781 25.900984 11.724703 25.833984 11.720703 C 25.305984 11.672703 24.816906 12.062562 24.753906 12.601562 C 24.689906 13.150562 25.082859 13.646938 25.630859 13.710938 C 25.668859 13.714937 25.748438 13.720703 25.898438 13.720703 C 26.278437 13.720703 27.122641 13.676031 28.806641 13.457031 C 28.728641 14.824031 28.671078 16.248078 28.705078 17.705078 C 26.816078 18.093078 25.69925 18.029344 25.65625 18.027344 C 25.11425 17.985344 24.628938 18.397312 24.585938 18.945312 C 24.542938 19.496312 24.955859 19.978484 25.505859 20.021484 C 25.527859 20.022484 25.66325 20.03125 25.90625 20.03125 C 26.42625 20.03125 27.434266 19.98475 28.822266 19.71875 C 28.952266 21.06375 29.206906 22.422344 29.628906 23.777344 C 27.972906 24.565344 26.749422 24.916875 26.732422 24.921875 C 26.200422 25.068875 25.888156 25.618391 26.035156 26.150391 C 26.158156 26.593391 26.559047 26.884766 26.998047 26.884766 C 27.086047 26.884766 27.174672 26.874609 27.263672 26.849609 C 27.338672 26.828609 28.606562 26.472344 30.351562 25.652344 C 30.878563 26.708344 31.573766 27.635406 32.384766 28.441406 C 31.140766 29.501406 29.957453 30.394203 29.939453 30.408203 C 29.498453 30.740203 29.410188 31.367594 29.742188 31.808594 C 29.939187 32.069594 30.238969 32.205078 30.542969 32.205078 C 30.751969 32.205078 30.963531 32.141859 31.144531 32.005859 C 31.225531 31.944859 32.5705 30.928094 33.9375 29.746094 C 35.0255 30.531094 36.218594 31.161484 37.433594 31.646484 C 36.727594 32.568484 35.966078 33.404922 35.580078 33.794922 C 35.192078 34.187922 35.196844 34.818031 35.589844 35.207031 C 35.784844 35.400031 36.038969 35.496094 36.292969 35.496094 C 36.550969 35.496094 36.806953 35.398172 37.001953 35.201172 C 37.079953 35.122172 38.349781 33.831359 39.425781 32.318359 C 40.792781 32.698359 42.112813 32.908656 43.257812 32.972656 C 42.719813 34.522656 42.253094 35.460609 42.246094 35.474609 C 41.996094 35.966609 42.191594 36.567359 42.683594 36.818359 C 42.829594 36.892359 42.983719 36.927734 43.136719 36.927734 C 43.500719 36.927734 43.850344 36.728813 44.027344 36.382812 C 44.062344 36.314813 44.690562 35.078062 45.351562 33.039062 C 52.269562 33.472062 55.848094 37.328438 55.996094 44.523438 C 54.812094 44.976437 50.020922 46 38.294922 46 L 13 46 C 10.583 46 8 44.949 8 42 L 8 11.625 C 8 9.303 20.623922 5 24.669922 5 z M 21.816406 8.3535156 C 20.820406 8.5395156 19.767484 8.7919375 18.771484 9.0859375 C 18.241484 9.2419375 17.939703 9.798125 18.095703 10.328125 C 18.222703 10.764125 18.622688 11.046875 19.054688 11.046875 C 19.148688 11.046875 19.243891 11.031906 19.337891 11.003906 C 20.269891 10.729906 21.253594 10.492359 22.183594 10.318359 C 22.726594 10.217359 23.084422 9.6943437 22.982422 9.1523438 C 22.881422 8.6083437 22.358406 8.2485156 21.816406 8.3535156 z M 14.96875 10.617188 C 14.839281 10.628172 14.710391 10.664266 14.587891 10.728516 C 12.207891 11.982516 11 13.419 11 15 L 11 25.0625 C 11 25.6145 11.448 26.0625 12 26.0625 C 12.552 26.0625 13 25.6155 13 25.0625 L 13 15 C 13 14.253 13.919484 13.340094 15.521484 12.496094 C 16.009484 12.239094 16.196453 11.635484 15.939453 11.146484 C 15.745953 10.780484 15.357156 10.584234 14.96875 10.617188 z M 41.1875 47.976562 C 41.7725 50.201563 44.058 56 52 56 L 53 56 C 55.968 56 58.439969 53.834 58.917969 51 L 60.957031 51 C 60.451031 56.828 55.557922 57.887 54.919922 58 L 3 58 L 3 56 L 6 56 C 12.835 56 17.402313 52.894 17.945312 48 L 24.355469 48 C 22.312469 49.651 21 52.174 21 55 C 21 55.552 21.448 56 22 56 L 38 56 C 38.552 56 39 55.552 39 55 C 39 52.174 37.688531 49.651 35.644531 48 L 38.294922 48 C 39.314922 48 40.2745 47.991562 41.1875 47.976562 z M 30 48 C 33.521 48 36.442687 50.612 36.929688 54 L 23.070312 54 C 23.557312 50.612 26.479 48 30 48 z"></path></svg>